<svg width="20" height="16" viewBox="0 0 20 16" fill="none" xmlns="http://www.w3.org/2000/svg">
<path d="M11.7666 9.76667C11.5378 10.0123 11.2618 10.2093 10.9551 10.3459C10.6484 10.4826 10.3174 10.556 9.98172 10.562C9.64604 10.5679 9.31261 10.5061 9.00132 10.3804C8.69003 10.2547 8.40725 10.0675 8.16985 9.83013C7.93246 9.59273 7.74531 9.30995 7.61957 8.99866C7.49383 8.68736 7.43208 8.35393 7.43801 8.01826C7.44393 7.68258 7.5174 7.35154 7.65404 7.04487C7.79068 6.73821 7.98769 6.46221 8.23331 6.23333M14.95 12.95C13.5255 14.0358 11.7909 14.6374 9.99998 14.6667C4.16665 14.6667 0.833313 8 0.833313 8C1.86989 6.06825 3.30759 4.38051 5.04998 3.05L14.95 12.95ZM8.24998 1.53333C8.82359 1.39907 9.41087 1.33195 9.99998 1.33333C15.8333 1.33333 19.1666 8 19.1666 8C18.6608 8.94634 18.0575 9.83728 17.3666 10.6583L8.24998 1.53333Z" stroke="#A6A6A6" stroke-width="2" stroke-linecap="round" stroke-linejoin="round"/>
</svg>
